M48
;Layer_Color=9474304
;FILE_FORMAT=2:5
INCH
;TYPE=PLATED
T1F00S00C0.01181
T2F00S00C0.01968
T4F00S00C0.03500
T5F00S00C0.03543
T6F00S00C0.03937
T7F00S00C0.05512
T8F00S00C0.06299
T9F00S00C0.07874
T10F00S00C0.11811
T11F00S00C0.14567
T12F00S00C0.19685
;TYPE=NON_PLATED
T13F00S00C0.02756
T14F00S00C0.03917
T15F00S00C0.05906
%
T01
X0791338Y0283465
X0803149
X0814960
X0826771
X0838582
X0850393
X0862204
X0874016
X0885826
X0897637
X0909449
X0903543Y0271654
X0891732
X0879921
X0868110
X0856299
X0844488
X0832677
X0820866
X0832677Y0295275
X0844488
X0856299
X0868110
X0879921
X0891732
X0903543
X0915354
X0909449Y0307086
X0897637
X0885826
X0874016
X0862204
X0850393
X0838582
X0850393Y0259842
X0862204
X0874016
X0885826
X0897637
X0909449
X0903543Y0248031
X0879921
X0868110
X0856299
X0862204Y0236220
X0874016
X0885826
X0915354Y0271654
X0779527Y0283465
X0767716
X0755905
X0744094
X0732283
X0717714Y0298288
X0696850Y0307086
X0685039
X0690945Y0295275
X0685039Y0283465
X0673228
X0661417
X0649606
X0637795
X0625984
Y0307086
X0649606
X0655512Y0295275
X0696850Y0283465
X0744094Y0307086
X0614173Y0283465
X0590551
X0578740
X0566929
X0555118
X0543307
X0531496
X0519685
X0507874
X0496063
X0484252
X0472441
X0478346Y0295275
X0490647Y0297501
X0501968Y0295275
X0513779
X0525590
X0537401
X0542025Y0297304
X0549212Y0295275
X0561023
X0555118Y0307086
X0543307
X0531496
X0507874
X0496063
X0484252
X0596456Y0295275
X0454724
X0451474Y0298584
X0448819Y0307086
X0460630
Y0283465
X0442913Y0295275
X0431102
X0419291
X0421946Y0298190
X0425197Y0307086
X0437008
X0415114Y0308815
X0386811Y0309992
X0377953Y0307086
X0382441Y0295275
X0366142Y0283465
X0354331
X0342520
X0336614Y0271654
X0318898Y0283465
Y0307086
X0342520
X0283465Y0283465
X0290942Y0256261
X0295275Y0259842
X0307086
X0301181Y0248031
X0289370
X0277559
X0271654Y0236220
X0295275
X0271654Y0259842
X0259842
X0248031
X0242126Y0271654
X0236220Y0283465
X0248031
X0242126Y0295275
X0236220Y0307086
X0248031
X0253937Y0248031
X0295275Y0330709
X0307086
X0301181Y0342520
X0295275Y0354331
X0307086
X0301181Y0366142
X0295275Y0377953
X0307086
X0301181Y0389764
Y0413386
X0307086Y0425197
X0301181Y0437008
X0307086Y0448819
X0301181Y0460630
X0324803
X0348425
X0354331Y0448819
X0348425Y0437008
X0354331Y0425197
X0360236Y0413386
X0348425
X0331100Y0419056
X0324803Y0413386
X0312992
Y0437008
Y0389764
X0324803
X0330709Y0377953
X0318898
X0324803Y0366142
X0332970Y0365808
X0332871Y0354784
X0332674Y0342383
X0324803Y0342520
X0312992
X0318898Y0354331
X0312992Y0366142
X0348425
X0360236
X0372047
X0383858
X0389764Y0377953
X0377953
X0366142
X0354331
X0360236Y0389764
X0348425
X0383858
Y0413386
X0395669
X0407480
X0419291
X0431102
X0433462Y0416005
X0431592Y0420336
X0443446Y0418252
X0443009Y0386566
X0431102Y0389764
X0419291
X0407480
X0413386Y0354331
X0401575
X0407480Y0342520
X0395669
X0383858
X0372047
X0360236
X0348425
X0354331Y0354331
X0366142
X0377953
X0425197
X0437008
X0431102Y0342520
X0442913
X0466535
Y0318898
X0454724
X0332871Y0330670
X0318898Y0330709
X0377953Y0425197
X0389764
X0395669Y0437008
X0407480
X0419291
X0413386Y0448819
X0401575
X0395669Y0460630
X0419291
X0425197Y0448819
X0437008
X0372047Y0437008
X0484252Y0448819
X0496063
X0507874
X0501968Y0460630
X0513779
X0490157
X0496063Y0425197
X0507874
X0513779Y0413386
X0525590
X0531496Y0425197
X0543307
X0555118
X0566929
X0581592Y0425060
X0578639Y0419548
X0577683Y0412826
X0588777Y0419253
X0590551Y0425197
Y0448819
X0596456Y0460630
X0620079
Y0437008
X0613180Y0415828
X0612583Y0402324
X0607504Y0402599
X0602504Y0402875
X0587005Y0402619
X0586683Y0398611
X0566929Y0401575
X0555118Y0377953
X0543307
X0531496
X0519685
X0513779Y0366142
X0525590
X0537401
X0531496Y0354331
X0519685
X0507874
X0496063
X0478245Y0355670
X0474407
X0476867Y0361768
Y0364336
X0479400Y0378482
X0478147Y0389135
X0472930Y0392875
X0470666Y0382836
X0496063Y0377953
X0484252Y0425197
X0531496Y0448819
X0543307
X0555118
X0549212Y0460630
X0537571Y0460461
X0561023Y0460630
X0579276Y0371497
X0579630Y0368033
X0586599Y0367796
X0590260Y0368151
X0594912Y0367403
X0594933Y0370179
X0593732Y0375728
X0603259Y0377009
X0606802
X0610345
Y0373466
Y0369922
X0606802
Y0373466
X0603259
Y0369922
X0601993Y0361379
X0592308Y0360119
X0590551Y0354331
X0599243Y0351694
X0609597Y0354568
X0620339Y0355788
X0624316Y0355552
X0618528Y0361340
X0618770Y0364332
Y0366694
Y0369135
X0618259Y0377481
X0620896
X0621441Y0393151
X0623140Y0397836
X0618016Y0402009
X0606664Y0385572
X0584906Y0370985
X0578740Y0354331
X0566929
X0555118
X0543307
X0537401Y0318898
X0525590
X0513779
X0501968
X0478346
X0472441Y0330709
X0484252
X0549212Y0318898
X0561023
X0572834
X0584646
X0596456
X0620079
Y0342520
X0631890
X0630221Y0355237
X0635615Y0355513
X0637795Y0354331
X0638528Y0358899
X0637268Y0367166
Y0370867
X0636874Y0374844
X0637111Y0380159
X0637032Y0384647
X0629512Y0387521
X0630103Y0375277
X0659440Y0375316
X0659461Y0373136
X0659440Y0370887
X0662294Y0369804
X0664164
X0666034
Y0376497
X0664164
X0662294
X0665070Y0382442
X0667550Y0382403
X0668882Y0387914
X0668213Y0392166
X0664777Y0395592
Y0398505
X0668292Y0401694
X0668331Y0406143
X0661632Y0415018
X0656985Y0413741
X0649906Y0409174
X0642353Y0410159
X0642392Y0412875
X0642432Y0407442
X0641526Y0399411
X0646087Y0395001
X0652744Y0387803
X0659125Y0382914
X0653495Y0367954
X0660536Y0359647
X0670501Y0353662
X0673180Y0353623
X0667323Y0342520
X0679134
X0673228Y0330709
X0661417
X0649606
X0655512Y0318898
X0643701
X0625984Y0330709
X0655512Y0342520
X0681251Y0363426
X0683928Y0363466
X0686566
X0693458Y0359686
X0703016Y0355749
X0709394Y0355828
X0716717
X0720472Y0354331
X0732283
X0729434Y0360592
X0740654Y0360513
X0738189Y0366142
X0740969Y0376615
X0741481Y0379568
X0741904Y0384159
X0740066Y0387009
X0738331Y0390552
X0739461Y0395889
X0739667Y0403213
X0752563Y0400854
X0755905Y0401575
X0759441Y0409332
X0757896Y0419922
X0763733Y0420267
X0750686Y0423978
X0748521Y0417383
X0736021Y0417777
X0732283Y0425197
X0726750Y0414124
X0718567Y0412915
X0720142Y0420115
X0715877Y0424066
X0708843Y0420040
X0712256Y0407824
X0709276Y0401143
X0709079Y0396536
X0702756Y0389764
X0701402Y0374096
X0695851Y0374174
X0696850Y0377953
X0707308Y0373899
X0702756Y0366142
X0700520Y0349833
X0702756Y0342520
X0709741Y0342481
X0714567Y0318898
X0726378
X0738189
X0750000
X0761811
X0773622
X0779527Y0330709
X0773324Y0345148
X0763383Y0348485
X0760135Y0349470
X0757757Y0355118
X0753344Y0355375
X0747635Y0356359
X0744094Y0354331
X0763765Y0357330
X0778294Y0359896
X0777655Y0369548
X0775064Y0369524
X0775378Y0375907
X0775182Y0385434
X0775221Y0395513
X0779527Y0401575
X0778260Y0411537
X0768455Y0390552
X0760503
X0756481Y0390631
X0752229Y0390194
X0752386Y0392678
X0752512Y0387584
X0760491Y0380656
X0756309Y0369081
X0752071Y0372875
X0728528Y0371300
X0722425Y0376063
X0726095Y0381431
X0726048Y0390159
X0730260Y0389962
X0733767Y0393387
X0725575Y0404962
X0697537Y0407540
X0696850Y0401575
X0688284Y0402914
X0689367Y0413741
X0679985Y0411261
X0679328Y0418170
X0673816Y0418367
X0673228Y0425197
X0676323Y0425907
X0660581Y0428544
X0667323Y0437008
X0670263Y0443426
X0678763Y0448232
X0677067Y0450161
X0691828Y0439070
X0714663Y0439332
X0718304Y0442284
X0720472Y0448819
X0726378Y0437008
X0739761Y0441891
X0744094Y0448819
X0756887Y0448584
X0765745Y0448978
X0779527Y0448819
X0773622Y0460630
X0761811
X0738189
X0655512
X0643701
X0631890
X0626572Y0443564
X0631890Y0437008
X0643701
X0639958Y0443269
X0647979Y0444253
X0652744Y0402735
X0676481Y0398466
Y0394096
X0676323Y0390001
X0684985Y0390474
X0684945Y0388033
X0684282Y0384607
X0681959Y0384647
X0686723Y0384568
X0683259Y0372678
X0679328Y0372600
X0675463
X0690945Y0318898
X0702756
X0785433
X0797244
X0809055
X0820866
X0832677
X0844488
X0856299
X0868110
X0879921
X0891732
X0903543
X0915354
X0909449Y0330709
X0897637
X0885826
X0874016
X0862204
X0850393
X0838582
X0844488Y0342520
X0832677
X0838582Y0354331
X0826771
X0832677Y0366142
X0833494Y0374036
X0830526
X0827557
X0824591Y0373935
X0821851Y0372793
X0819620Y0370834
X0817133Y0369214
X0814332Y0368231
X0811390Y0367834
X0808421Y0367835
X0808998Y0374608
X0811965Y0374675
X0814769Y0375652
X0817021Y0377585
X0819463Y0379273
X0822236Y0380332
X0825739Y0380809
X0828707
X0831676
X0834644
X0836463Y0374036
X0852339
X0855308
X0861245
X0864211Y0374155
X0867418Y0374076
X0875067Y0374036
X0874541Y0380809
X0871572
X0868604
X0865637Y0380705
X0863398Y0380760
X0860430Y0380809
X0857461
X0854493
X0851559Y0381260
X0856299Y0389764
X0844488
X0832677
X0820866
X0826771Y0401575
X0838582
X0850393
X0862204
X0874016
X0868110Y0389764
X0856299Y0366142
X0844488
X0850393Y0354331
X0862204
X0874016
X0885826
X0897637
X0909449
X0903543Y0342520
X0891732
X0879921
X0868110
X0856299
X0797244
X0788284Y0343663
X0791338Y0330709
X0803512Y0327497
X0804055Y0362814
X0801498Y0362574
X0790512Y0365503
X0788322Y0370086
X0788488Y0373049
X0783449Y0390277
X0783725Y0400135
X0786505Y0401921
X0788572Y0399755
X0789764Y0412659
X0793993Y0414135
X0790442Y0420845
X0791338Y0425197
X0796872Y0441669
X0798942Y0443190
X0784042Y0445552
X0783570Y0448077
X0792123Y0465513
X0820866Y0460630
X0832677
X0826771Y0448819
X0813392Y0448781
X0814367Y0453407
X0820866Y0437008
X0832677
Y0413386
X0820866
X0799361Y0396299
X0800018Y0393338
X0781408Y0411947
X0820866Y0366142
X0915354Y0342520
X0826771Y0472441
X0832677Y0484252
X0801966Y0501537
X0801293Y0506416
X0804071Y0509014
X0803344Y0520237
X0800099Y0523701
X0811907Y0532147
X0810598Y0552492
X0807842Y0557098
X0797557Y0562975
X0789483Y0568653
X0786119Y0573387
X0785433Y0578740
X0797244
X0809055
X0812094Y0591084
X0814960Y0590551
X0817993Y0591591
X0820751Y0592689
X0823181Y0594394
X0825200Y0596570
X0826665Y0599153
X0827550Y0601986
X0828398Y0604831
X0832677Y0602362
X0820866
X0818250Y0599098
X0815510Y0597956
X0812543Y0597856
X0798584Y0596172
Y0593203
X0791338Y0590551
X0785433Y0602362
X0797244
X0791338Y0614173
X0803149
X0821021Y0620568
X0821164Y0623533
X0827840Y0622141
X0827792Y0619173
X0828747Y0624968
X0838582Y0614173
X0850393
X0844488Y0602362
X0856299
X0826771Y0590551
Y0566929
X0832677Y0555118
X0785433
X0791338Y0543307
X0779527
X0776474Y0547403
X0773622Y0555118
X0761811
X0767716Y0566929
X0779527
X0776572Y0578505
X0773622Y0578740
X0761811
X0761414Y0573781
X0753442Y0573682
X0750000Y0578740
X0738189
X0736119Y0573190
X0732182Y0571615
X0742517Y0573190
X0726378Y0578740
X0732449Y0590374
X0735233Y0592351
X0738189Y0602362
X0761811
X0773622
X0767716Y0543307
X0756596Y0537269
X0756887Y0532245
X0761811Y0531496
X0743304Y0532147
X0743206Y0537068
X0735052Y0544564
X0726680Y0542289
X0721147Y0549020
X0720863Y0555020
X0706788Y0556950
Y0559893
X0707651Y0552192
X0702458Y0555292
X0694781Y0555188
Y0557836
X0694978Y0550651
X0688705Y0548463
X0678874Y0548219
X0676080Y0547993
X0674299Y0545336
X0682243Y0542688
X0681690Y0530178
X0681985Y0518367
X0681690Y0509804
X0682182Y0500257
X0691434Y0499371
X0691533Y0493269
X0693850Y0483240
X0700511Y0489901
X0706071Y0495856
X0718501Y0492875
X0729820Y0490316
X0728934Y0500946
X0737399
X0742910Y0503407
X0735332Y0508033
X0736299Y0526753
X0723029Y0525159
X0714567Y0529881
X0707084Y0533189
X0702756Y0531496
X0706001Y0524470
X0693206Y0508721
X0667323Y0507874
X0673228Y0496063
X0661417
X0655512Y0484252
X0643701
X0637795Y0472441
X0649606
X0661417
X0673228
X0679134Y0484252
X0667323
X0696850Y0472441
X0708661
X0720472
X0717418Y0476832
X0719288Y0479292
X0744978Y0489725
X0747635Y0495631
X0752753Y0496426
X0757773Y0496517
X0767615
X0779527Y0496063
Y0472441
X0767716
X0755905
X0750856Y0513399
X0776080Y0516399
X0661417Y0519685
X0649606
X0637795
X0625984
X0631890Y0531496
X0643701
X0655512
X0665253Y0533918
X0668698Y0534214
X0661417Y0543307
X0649606
X0637795
X0625984
X0631890Y0555118
X0643701
X0655512
X0661417Y0566929
X0666040Y0569745
X0668993Y0567767
X0675981Y0565710
X0681915Y0566508
X0682695Y0573014
X0690844Y0584509
X0707773Y0585100
X0707695Y0582605
Y0580095
X0702756Y0578740
Y0602362
X0708774Y0619236
X0679134Y0602362
X0667323
X0655512Y0578740
X0643701
X0631890
X0637795Y0566929
X0649606
X0625984
Y0590551
X0637795
X0631890Y0602362
Y0507874
X0643701
X0637795Y0496063
X0625984
X0614173
X0602362
X0590551
X0578740
X0584815Y0507705
X0596456Y0507874
X0608267
X0620079
X0614173Y0519685
X0602362
X0608267Y0531496
X0596456
X0584646
X0582773Y0522806
Y0520237
X0573521Y0519056
X0572834Y0531496
X0561023
X0537401
X0525590
X0519685Y0543307
X0507874
X0496063
X0501968Y0555118
X0490157
X0496063Y0566929
X0507874
X0519685
X0525590Y0578740
X0537401
X0531496Y0590551
X0519685
X0507874
X0496063
X0484252
X0478346Y0578740
X0490157
X0501968
X0472441Y0566929
Y0543307
X0478346Y0531496
X0472441Y0519685
X0478346Y0507874
X0490157
X0501238Y0515054
X0518167
X0513779Y0507874
X0507874Y0496063
X0519685Y0472441
X0531496
X0537401Y0484252
X0543307Y0496063
X0555118
X0561023Y0507874
X0561193Y0484083
X0572834Y0484252
X0584646
X0596456
X0608267
X0620079
X0614173Y0472441
X0602362
X0590551
X0578740
X0566929
X0555118
X0561023Y0555118
X0572834
X0584646
X0596456
X0608267
X0620079
X0614173Y0566929
X0602362
X0590551
X0596456Y0578740
X0608267
X0620079
X0614173Y0590551
X0602362
X0590551
X0584646Y0578740
X0572834
X0561023
X0555118Y0566929
Y0590551
X0572683Y0621395
X0617342Y0624196
X0620079Y0602362
X0614173Y0543307
X0602362
X0590551
X0620079Y0531496
X0537401Y0555118
X0525590
X0472441Y0496063
X0441926Y0496517
Y0499568
X0441828Y0503407
X0437442Y0510992
X0434442
Y0514992
X0437442
X0443987Y0520660
X0426412Y0510878
X0423914Y0511478
X0427379Y0508124
X0425197Y0496063
X0413386
X0401575
X0389764
X0377953
X0366142
X0354331
X0360236Y0484252
X0348425
X0354331Y0472441
X0318898
X0324803Y0484252
X0348425Y0507874
X0354331Y0519685
X0366142
X0372047Y0531496
X0360236
X0366142Y0543307
X0360236Y0555118
X0348425
X0354331Y0566929
X0366142
X0382182Y0572600
X0389764Y0566929
X0389367Y0579883
X0389764Y0590551
X0384365Y0589842
X0379131Y0596418
X0383858Y0602362
X0407480
X0419291
X0431102
Y0578740
X0419291
X0413386Y0566929
X0425197
X0437008
X0431102Y0555118
X0419291
X0407480
X0395669
X0389764Y0543307
X0395669Y0531496
X0387881Y0522403
X0401575Y0519685
X0407480Y0507874
X0395669Y0484252
X0383858
X0440745Y0491300
X0419291Y0531496
X0413386Y0543307
X0442913Y0555118
X0403934Y0584115
X0400633Y0582058
X0401575Y0590551
X0377064Y0583220
X0354331Y0590551
X0342520
X0348425Y0578740
X0342520Y0566929
X0318898
X0324803Y0578740
X0312992
X0318898Y0590551
X0324803Y0602362
X0312992
X0318898Y0614173
X0348425Y0602362
X0360236
X0324803Y0555118
X0312992
X0318898Y0543307
X0312992Y0531496
X0462300Y0621418
X0307086Y0614173
X0295275
X0283465
X0271654
X0259842
X0248031
X0236220
X0242126Y0602362
X0253937
X0259842Y0590551
X0271654
X0265748Y0578740
X0253937
X0242126
X0236220Y0590551
Y0566929
X0248031
X0259842
X0271654
X0283465
X0277559Y0578740
X0301181
X0295275Y0590551
X0307086
X0301181Y0602362
X0289370
X0307086Y0566929
X0301181Y0555118
X0307086Y0543307
X0301181Y0531496
X0307086Y0519685
X0301181Y0507874
X0307086Y0496063
X0301181Y0484252
X0307086Y0472441
X0301181Y0625984
X0289370
X0277559
X0265748
X0253937
X0242126
X0248031Y0637795
X0259842
X0271654
X0283465
X0295275
X0307086
X0301181Y0649606
X0289370
X0277559
X0265748
X0253937
X0271654Y0661417
X0283465
X0295275
X0307086
X0318898
X0324803Y0649606
X0312992
X0318898Y0637795
X0324803Y0625984
X0312992
X0360236
X0366142Y0637795
X0372047Y0649606
X0395669
X0389764Y0661417
X0401575
X0413386
X0419291Y0625984
X0395669
X0389764Y0637795
X0460630
X0461808Y0634410
X0466535Y0625984
X0454724
Y0649606
X0462005Y0650552
X0466535Y0649606
X0478346
X0484252Y0637795
X0472441
X0478346Y0625984
X0490157
X0513779
X0525590
X0537401
X0549212
X0561023
Y0649606
X0549212
X0537401
X0534151Y0649470
X0525590Y0649606
X0528538Y0662360
X0542711
X0555118Y0661417
X0566929
X0578740
X0590551
X0602362
X0614173
X0620079Y0649606
X0608267
X0596456
X0602362Y0637795
X0590551
X0614173
X0621593Y0627502
X0624159Y0627390
X0543307Y0637795
X0531496
X0533954Y0635001
X0519685Y0637795
X0507874
X0491729Y0660710
X0472441Y0661417
X0625984
Y0637795
X0685039
X0679134Y0649606
X0690945
X0685039Y0661417
X0696850
X0708661
X0720472
X0732283
X0744094
X0755905
X0767716
X0779527
X0773622Y0649606
X0761811
X0750000
X0738189
X0726378
X0732283Y0637795
X0731493Y0627029
X0738189Y0625984
X0750000
X0761811
X0767716Y0637795
X0755905
X0744094
X0786021Y0625257
X0809055Y0625984
X0820866
X0823308Y0629034
X0825223Y0631302
X0827603Y0633076
X0830305Y0634305
X0834451Y0634962
X0837420
X0840388
X0843357
X0846325Y0634943
X0849294
X0848431Y0628170
X0851384Y0628469
X0839525Y0628190
X0836557
X0833589Y0628118
X0830903Y0627127
X0826771Y0637795
X0814960
X0809055Y0649606
X0797244
X0791338Y0661417
X0803149
X0814960
X0826771
X0838582
X0850393
X0862204
X0874016
X0879921Y0649606
X0891732
X0868110
X0856299
X0844488
X0832677
X0820866
X0838582Y0637795
T02
X0293166Y0292092
Y0295793
X0293127Y0299218
X0338263Y0344706
Y0347895
X0338145Y0351163
T04
X0365829Y0630795
X0375829
X0385829
X0395829
X0405829
X0415829
T05
X0477801Y0439147
Y0449147
Y0459147
X0570188Y0394922
Y0384922
Y0374922
Y0364922
X0632235Y0431733
X0642235
X0654046
X0664046
X0674992
X0684992
X0694992
X0704992
X0714992
X0724992
X0734992
X0744992
X0754992
X0764992
X0774992
X0477801Y0469147
X0292025Y0575454
X0282182
X0725863Y0630375
X0735863
X0745863
T06
X0788249Y0288911
Y0306627
X0813840
Y0288911
X0755277
Y0306627
X0729686
Y0288911
X0719440Y0364371
Y0406891
X0261710Y0598485
X0250686Y0589430
Y0608721
T07
X0321356Y0407835
Y0421615
Y0435394
Y0449174
Y0494449
Y0508229
Y0522008
Y0535788
T08
X0350916Y0327274
X0433690Y0327289
X0516269Y0327471
X0599412Y0327505
X0682312Y0327485
X0764938Y0327418
Y0613418
X0682312Y0613485
X0599412Y0613505
X0516269Y0613471
X0433690Y0613288
X0350916Y0613274
T09
X0518444Y0290005
X0518366Y0305793
T10
X0891257Y0253348
X0263492Y0253245
X0491458Y0412936
X0540671
X0827221Y0427997
Y0580359
X0491458Y0495613
X0433388Y0535913
X0348270
T11
X0573422Y0453308
X0703344
X0573422Y0642284
X0703344
T12
X0400374Y0298195
T13
X0252962Y0316200
X0268907
T14
X0710135Y0288485
X0714135Y0308485
X0706135
T15
X0389859Y0353013
Y0372265
M30
