G04*
G04 #@! TF.GenerationSoftware,Altium Limited,Altium Designer,22.8.2 (66)*
G04*
G04 Layer_Color=16711935*
%FSAX25Y25*%
%MOIN*%
G70*
G04*
G04 #@! TF.SameCoordinates,6D899778-4568-4F72-86F0-953F423F45E2*
G04*
G04*
G04 #@! TF.FilePolarity,Positive*
G04*
G01*
G75*
%ADD16C,0.00787*%
D16*
X0859107Y0669480D02*
X0863550Y0669189D01*
X0856880Y0669480D02*
X0859107Y0669480D01*
X0507636D02*
X0856880Y0669480D01*
X0507636Y0655177D02*
Y0669480D01*
Y0654785D02*
Y0655177D01*
X0507337Y0654061D02*
X0507636Y0654785D01*
X0506782Y0653507D02*
X0507337Y0654061D01*
X0506058Y0653207D02*
X0506782Y0653507D01*
X0505275Y0653207D02*
X0506058D01*
X0504551Y0653507D02*
X0505275Y0653207D01*
X0503996Y0654061D02*
X0504551Y0653507D01*
X0503696Y0654785D02*
X0503996Y0654061D01*
X0503696Y0654785D02*
Y0655177D01*
Y0669480D01*
X0485865D02*
X0503696D01*
X0485865Y0655312D02*
Y0669480D01*
Y0654920D02*
Y0655312D01*
X0485565Y0654196D02*
X0485865Y0654920D01*
X0485011Y0653642D02*
X0485565Y0654196D01*
X0484287Y0653342D02*
X0485011Y0653642D01*
X0483503Y0653342D02*
X0484287D01*
X0482779Y0653642D02*
X0483503Y0653342D01*
X0482225Y0654196D02*
X0482779Y0653642D01*
X0481925Y0654920D02*
X0482225Y0654196D01*
X0481925Y0654920D02*
Y0655312D01*
Y0669480D01*
X0297917D02*
X0481925D01*
X0295691D02*
X0297917D01*
X0291249Y0669189D02*
X0295691Y0669480D01*
X0286835Y0668608D02*
X0291249Y0669189D01*
X0282468Y0667739D02*
X0286835Y0668608D01*
X0278168Y0666587D02*
X0282468Y0667739D01*
X0273952Y0665156D02*
X0278168Y0666587D01*
X0269839Y0663452D02*
X0273952Y0665156D01*
X0265846Y0661483D02*
X0269839Y0663452D01*
X0261991Y0659257D02*
X0265846Y0661483D01*
X0258289Y0656784D02*
X0261991Y0659257D01*
X0254757Y0654073D02*
X0258289Y0656784D01*
X0251410Y0651138D02*
X0254757Y0654073D01*
X0248262Y0647990D02*
X0251410Y0651138D01*
X0245326Y0644643D02*
X0248262Y0647990D01*
X0242616Y0641111D02*
X0245326Y0644643D01*
X0240143Y0637409D02*
X0242616Y0641111D01*
X0237917Y0633554D02*
X0240143Y0637409D01*
X0235948Y0629561D02*
X0237917Y0633554D01*
X0234244Y0625448D02*
X0235948Y0629561D01*
X0232813Y0621232D02*
X0234244Y0625448D01*
X0231661Y0616931D02*
X0232813Y0621232D01*
X0230792Y0612565D02*
X0231661Y0616931D01*
X0230211Y0608151D02*
X0230792Y0612565D01*
X0229920Y0603709D02*
X0230211Y0608151D01*
X0229920Y0603709D02*
X0229920Y0601482D01*
Y0566049D02*
Y0601482D01*
X0229920Y0565659D02*
X0229920Y0566049D01*
X0229920Y0565659D02*
X0230072Y0564893D01*
X0230371Y0564172D01*
X0230805Y0563523D01*
X0231357Y0562971D01*
X0232006Y0562537D01*
X0232727Y0562238D01*
X0233493Y0562086D01*
X0285064D01*
X0285448Y0562067D01*
X0286199Y0561918D01*
X0286908Y0561624D01*
X0287545Y0561199D01*
X0288087Y0560656D01*
X0288513Y0560019D01*
X0288806Y0559311D01*
X0288956Y0558559D01*
X0288975Y0558175D01*
Y0335825D02*
Y0558175D01*
X0288956Y0335442D02*
X0288975Y0335825D01*
X0288806Y0334690D02*
X0288956Y0335442D01*
X0288513Y0333982D02*
X0288806Y0334690D01*
X0288087Y0333345D02*
X0288513Y0333982D01*
X0287545Y0332803D02*
X0288087Y0333345D01*
X0286908Y0332377D02*
X0287545Y0332803D01*
X0286199Y0332084D02*
X0286908Y0332377D01*
X0285448Y0331934D02*
X0286199Y0332084D01*
X0285064Y0331915D02*
X0285448Y0331934D01*
X0233493Y0331915D02*
X0285064D01*
X0232727Y0331763D02*
X0233493Y0331915D01*
X0232006Y0331464D02*
X0232727Y0331763D01*
X0231357Y0331030D02*
X0232006Y0331464D01*
X0230805Y0330478D02*
X0231357Y0331030D01*
X0230371Y0329829D02*
X0230805Y0330478D01*
X0230072Y0329108D02*
X0230371Y0329829D01*
X0229920Y0328342D02*
X0230072Y0329108D01*
X0229920Y0328342D02*
X0229920Y0327951D01*
X0229920Y0292519D02*
X0229920Y0327951D01*
X0229920Y0290197D02*
Y0292519D01*
Y0290197D02*
X0230237Y0285564D01*
X0230868Y0280964D01*
X0231813Y0276417D01*
X0233065Y0271945D01*
X0234619Y0267570D01*
X0236468Y0263310D01*
X0238603Y0259187D01*
X0241015Y0255218D01*
X0243691Y0251424D01*
X0246620Y0247820D01*
X0249788Y0244425D01*
X0253181Y0241254D01*
X0256781Y0238322D01*
X0260573Y0235642D01*
X0264540Y0233227D01*
X0268661Y0231088D01*
X0272919Y0229235D01*
X0277293Y0227677D01*
X0281764Y0226420D01*
X0284037Y0225946D01*
X0285093Y0225726D01*
X0287246Y0225557D01*
X0289402Y0225662D01*
X0291528Y0226040D01*
X0293588Y0226684D01*
X0295550Y0227584D01*
X0297382Y0228726D01*
X0299055Y0230092D01*
X0300541Y0231658D01*
X0301816Y0233400D01*
X0302859Y0235290D01*
X0303655Y0237297D01*
X0303922Y0238343D01*
X0303870Y0237970D02*
X0303922Y0238343D01*
X0303802Y0237365D02*
X0303870Y0237970D01*
X0303802Y0237365D02*
X0303856Y0237369D01*
X0303923Y0237964D01*
X0304006Y0238558D01*
X0304104Y0239150D01*
X0304219Y0239742D01*
X0304349Y0240333D01*
X0304495Y0240923D01*
X0304657Y0241511D01*
X0304834Y0242098D01*
X0305027Y0242683D01*
X0305235Y0243267D01*
X0305459Y0243849D01*
X0305698Y0244428D01*
X0305953Y0245006D01*
X0306223Y0245581D01*
X0306508Y0246154D01*
X0306809Y0246725D01*
X0307125Y0247292D01*
X0307456Y0247858D01*
X0307801Y0248420D01*
X0308162Y0248979D01*
X0308538Y0249535D01*
X0308928Y0250088D01*
X0309333Y0250637D01*
X0309753Y0251183D01*
X0310187Y0251725D01*
X0310635Y0252263D01*
X0311098Y0252797D01*
X0311575Y0253327D01*
X0312066Y0253854D01*
X0312571Y0254376D01*
X0313089Y0254893D01*
X0313622Y0255406D01*
X0314168Y0255914D01*
X0314727Y0256418D01*
X0315300Y0256916D01*
X0315886Y0257410D01*
X0316485Y0257898D01*
X0317097Y0258382D01*
X0317723Y0258860D01*
X0318360Y0259333D01*
X0319010Y0259800D01*
X0319672Y0260261D01*
X0320347Y0260717D01*
X0321034Y0261167D01*
X0321732Y0261610D01*
X0322443Y0262049D01*
X0323164Y0262480D01*
X0323898Y0262905D01*
X0324642Y0263324D01*
X0325398Y0263737D01*
X0326165Y0264143D01*
X0326942Y0264542D01*
X0327729Y0264935D01*
X0328527Y0265320D01*
X0329336Y0265699D01*
X0330154Y0266071D01*
X0330983Y0266436D01*
X0331820Y0266793D01*
X0332667Y0267144D01*
X0333523Y0267487D01*
X0334389Y0267822D01*
X0335263Y0268150D01*
X0336146Y0268471D01*
X0337037Y0268784D01*
X0337937Y0269089D01*
X0338844Y0269386D01*
X0339760Y0269676D01*
X0340683Y0269957D01*
X0341613Y0270231D01*
X0342550Y0270496D01*
X0343495Y0270754D01*
X0344446Y0271003D01*
X0345404Y0271244D01*
X0346368Y0271477D01*
X0347339Y0271701D01*
X0348314Y0271917D01*
X0349296Y0272125D01*
X0350283Y0272324D01*
X0351275Y0272515D01*
X0352273Y0272697D01*
X0353274Y0272870D01*
X0354281Y0273035D01*
X0355292Y0273191D01*
X0356306Y0273339D01*
X0357325Y0273477D01*
X0358347Y0273607D01*
X0359373Y0273728D01*
X0360401Y0273840D01*
X0361432Y0273943D01*
X0362466Y0274038D01*
X0363503Y0274123D01*
X0364542Y0274200D01*
X0365582Y0274267D01*
X0366624Y0274326D01*
X0367668Y0274375D01*
X0368713Y0274416D01*
X0369759Y0274447D01*
X0370805Y0274470D01*
X0371852Y0274483D01*
X0372899Y0274488D01*
X0781899D01*
X0782946Y0274483D01*
X0783994Y0274470D01*
X0785040Y0274447D01*
X0786086Y0274416D01*
X0787131Y0274375D01*
X0788174Y0274326D01*
X0789217Y0274267D01*
X0790257Y0274200D01*
X0791296Y0274123D01*
X0792332Y0274038D01*
X0793366Y0273943D01*
X0794398Y0273840D01*
X0795426Y0273728D01*
X0796452Y0273607D01*
X0797474Y0273477D01*
X0798493Y0273338D01*
X0799507Y0273191D01*
X0800518Y0273035D01*
X0801524Y0272870D01*
X0802526Y0272697D01*
X0803524Y0272515D01*
X0804515Y0272324D01*
X0805503Y0272125D01*
X0806485Y0271917D01*
X0807460Y0271701D01*
X0808431Y0271477D01*
X0809394Y0271244D01*
X0810353Y0271003D01*
X0811303Y0270754D01*
X0812248Y0270496D01*
X0813186Y0270231D01*
X0814116Y0269957D01*
X0815039Y0269676D01*
X0815954Y0269386D01*
X0816862Y0269089D01*
X0817762Y0268784D01*
X0818652Y0268471D01*
X0819535Y0268150D01*
X0820409Y0267822D01*
X0821275Y0267487D01*
X0822131Y0267144D01*
X0822979Y0266793D01*
X0823816Y0266436D01*
X0824644Y0266071D01*
X0825463Y0265699D01*
X0826271Y0265320D01*
X0827069Y0264935D01*
X0827857Y0264542D01*
X0828634Y0264143D01*
X0829400Y0263737D01*
X0830156Y0263324D01*
X0830901Y0262905D01*
X0831634Y0262480D01*
X0832356Y0262048D01*
X0833066Y0261611D01*
X0833765Y0261167D01*
X0834451Y0260717D01*
X0835126Y0260261D01*
X0835789Y0259800D01*
X0836438Y0259333D01*
X0837076Y0258860D01*
X0837701Y0258382D01*
X0838313Y0257899D01*
X0838912Y0257410D01*
X0839498Y0256916D01*
X0840071Y0256418D01*
X0840631Y0255914D01*
X0841177Y0255406D01*
X0841709Y0254893D01*
X0842228Y0254376D01*
X0842733Y0253854D01*
X0843224Y0253328D01*
X0843701Y0252797D01*
X0844163Y0252263D01*
X0844612Y0251725D01*
X0845046Y0251183D01*
X0845465Y0250637D01*
X0845870Y0250088D01*
X0846261Y0249535D01*
X0846636Y0248979D01*
X0846997Y0248420D01*
X0847343Y0247858D01*
X0847674Y0247292D01*
X0847990Y0246725D01*
X0848290Y0246154D01*
X0848575Y0245581D01*
X0848845Y0245006D01*
X0849100Y0244428D01*
X0849339Y0243849D01*
X0849563Y0243267D01*
X0849772Y0242683D01*
X0849965Y0242098D01*
X0850142Y0241511D01*
X0850303Y0240923D01*
X0850449Y0240333D01*
X0850580Y0239742D01*
X0850694Y0239150D01*
X0850793Y0238558D01*
X0850876Y0237964D01*
X0850944Y0237359D01*
X0850996Y0237375D01*
X0850928Y0237971D02*
X0850996Y0237375D01*
X0850876Y0238343D02*
X0850928Y0237971D01*
X0850876Y0238343D02*
X0851144Y0237297D01*
X0851939Y0235290D01*
X0852983Y0233400D01*
X0854258Y0231658D01*
X0855744Y0230092D01*
X0857416Y0228726D01*
X0859248Y0227584D01*
X0861210Y0226684D01*
X0863271Y0226040D01*
X0865396Y0225662D01*
X0867553Y0225557D01*
X0869705Y0225726D01*
X0870762Y0225946D01*
X0873035Y0226420D01*
X0877505Y0227677D01*
X0881879Y0229235D01*
X0886137Y0231088D01*
X0890259Y0233227D01*
X0894225Y0235642D01*
X0898017Y0238322D01*
X0901618Y0241254D01*
X0905010Y0244425D01*
X0908178Y0247820D01*
X0911107Y0251424D01*
X0913784Y0255218D01*
X0916195Y0259187D01*
X0918331Y0263310D01*
X0920180Y0267570D01*
X0921734Y0271945D01*
X0922986Y0276417D01*
X0923930Y0280964D01*
X0924562Y0285564D01*
X0924879Y0290197D01*
X0924879Y0292519D02*
X0924879Y0290197D01*
X0924879Y0292519D02*
Y0407544D01*
X0924879Y0407935D01*
X0924726Y0408700D02*
X0924879Y0407935D01*
X0924428Y0409421D02*
X0924726Y0408700D01*
X0923994Y0410071D02*
X0924428Y0409421D01*
X0923442Y0410623D02*
X0923994Y0410071D01*
X0922793Y0411057D02*
X0923442Y0410623D01*
X0922071Y0411355D02*
X0922793Y0411057D01*
X0921306Y0411508D02*
X0922071Y0411355D01*
X0840994Y0411508D02*
X0921306D01*
X0840611Y0411526D02*
X0840994Y0411508D01*
X0839859Y0411676D02*
X0840611Y0411526D01*
X0839151Y0411969D02*
X0839859Y0411676D01*
X0838513Y0412395D02*
X0839151Y0411969D01*
X0837971Y0412937D02*
X0838513Y0412395D01*
X0837545Y0413575D02*
X0837971Y0412937D01*
X0837252Y0414283D02*
X0837545Y0413575D01*
X0837102Y0415035D02*
X0837252Y0414283D01*
X0837084Y0415418D02*
X0837102Y0415035D01*
X0837084Y0415418D02*
Y0592780D01*
X0837102Y0593164D01*
X0837252Y0593915D01*
X0837545Y0594624D01*
X0837971Y0595261D01*
X0838513Y0595803D01*
X0839150Y0596229D01*
X0839858Y0596522D01*
X0840610Y0596672D01*
X0840994Y0596691D01*
X0921306D01*
X0922071Y0596843D01*
X0922793Y0597142D01*
X0923442Y0597576D01*
X0923994Y0598128D01*
X0924428Y0598777D01*
X0924726Y0599498D01*
X0924879Y0600264D01*
X0924879Y0600655D02*
X0924879Y0600264D01*
X0924879Y0600655D02*
X0924879Y0601482D01*
Y0603709D01*
X0924588Y0608151D02*
X0924879Y0603709D01*
X0924006Y0612565D02*
X0924588Y0608151D01*
X0923138Y0616931D02*
X0924006Y0612565D01*
X0921986Y0621232D02*
X0923138Y0616931D01*
X0920555Y0625448D02*
X0921986Y0621232D01*
X0918851Y0629561D02*
X0920555Y0625448D01*
X0916882Y0633554D02*
X0918851Y0629561D01*
X0914656Y0637409D02*
X0916882Y0633554D01*
X0912182Y0641111D02*
X0914656Y0637409D01*
X0909472Y0644643D02*
X0912182Y0641111D01*
X0906537Y0647990D02*
X0909472Y0644643D01*
X0903389Y0651138D02*
X0906537Y0647990D01*
X0900041Y0654073D02*
X0903389Y0651138D01*
X0896509Y0656784D02*
X0900041Y0654073D01*
X0892808Y0659257D02*
X0896509Y0656784D01*
X0888952Y0661483D02*
X0892808Y0659257D01*
X0884959Y0663452D02*
X0888952Y0661483D01*
X0880846Y0665156D02*
X0884959Y0663452D01*
X0876630Y0666587D02*
X0880846Y0665156D01*
X0872330Y0667739D02*
X0876630Y0666587D01*
X0867964Y0668608D02*
X0872330Y0667739D01*
X0863550Y0669189D02*
X0867964Y0668608D01*
M02*
