G04*
G04 #@! TF.GenerationSoftware,Altium Limited,Altium Designer,22.8.2 (66)*
G04*
G04 Layer_Color=8421504*
%FSAX25Y25*%
%MOIN*%
G70*
G04*
G04 #@! TF.SameCoordinates,6D899778-4568-4F72-86F0-953F423F45E2*
G04*
G04*
G04 #@! TF.FilePolarity,Positive*
G04*
G01*
G75*
%ADD20R,0.03780X0.01968*%
%ADD21R,0.03740X0.01929*%
%ADD22R,0.03740X0.01929*%
%ADD23R,0.01929X0.03740*%
%ADD24R,0.03150X0.06299*%
%ADD25R,0.08268X0.11811*%
%ADD26R,0.02756X0.00787*%
%ADD27R,0.02362X0.03543*%
%ADD28R,0.03937X0.03543*%
%ADD29R,0.02953X0.03150*%
%ADD30R,0.01968X0.02284*%
%ADD31R,0.04134X0.08661*%
%ADD32R,0.03937X0.03937*%
%ADD33R,0.02441X0.02244*%
%ADD34R,0.07087X0.05118*%
%ADD35R,0.11024X0.08268*%
%ADD36R,0.07480X0.02362*%
%ADD37R,0.03937X0.03937*%
%ADD38R,0.08661X0.04134*%
%ADD39R,0.03150X0.02953*%
%ADD40R,0.02284X0.01968*%
%ADD41R,0.01575X0.05512*%
%ADD42R,0.04102X0.05480*%
%ADD43R,0.04724X0.05512*%
%ADD44R,0.03150X0.03150*%
%ADD45R,0.04872X0.00837*%
%ADD46R,0.03768X0.01322*%
%ADD47R,0.03937X0.03150*%
%ADD48R,0.03937X0.02362*%
%ADD49R,0.04488X0.05118*%
%ADD50R,0.01968X0.00787*%
%ADD51R,0.00787X0.01968*%
%ADD52R,0.08661X0.02362*%
%ADD53R,0.08661X0.02362*%
%ADD54R,0.03584X0.01308*%
%ADD55R,0.04331X0.02362*%
%ADD56R,0.03740X0.01890*%
%ADD57R,0.03543X0.02362*%
%ADD58R,0.02244X0.02441*%
%ADD59R,0.03150X0.03150*%
%ADD60R,0.01890X0.03740*%
%ADD61R,0.13780X0.04921*%
%ADD62R,0.07874X0.13780*%
%ADD63R,0.02362X0.02520*%
%ADD64R,0.01772X0.01929*%
%ADD65R,0.08661X0.03543*%
%ADD66R,0.03543X0.05118*%
%ADD67R,0.05118X0.03543*%
%ADD68R,0.05512X0.03937*%
%ADD69R,0.05906X0.06299*%
%ADD70R,0.06102X0.13583*%
%ADD71R,0.01968X0.05512*%
%ADD72R,0.09449X0.06299*%
G04:AMPARAMS|DCode=73|XSize=9.84mil|YSize=23.62mil|CornerRadius=2.46mil|HoleSize=0mil|Usage=FLASHONLY|Rotation=90.000|XOffset=0mil|YOffset=0mil|HoleType=Round|Shape=RoundedRectangle|*
%AMROUNDEDRECTD73*
21,1,0.00984,0.01870,0,0,90.0*
21,1,0.00492,0.02362,0,0,90.0*
1,1,0.00492,0.00935,0.00246*
1,1,0.00492,0.00935,-0.00246*
1,1,0.00492,-0.00935,-0.00246*
1,1,0.00492,-0.00935,0.00246*
%
%ADD73ROUNDEDRECTD73*%
G04:AMPARAMS|DCode=74|XSize=9.84mil|YSize=23.62mil|CornerRadius=2.46mil|HoleSize=0mil|Usage=FLASHONLY|Rotation=0.000|XOffset=0mil|YOffset=0mil|HoleType=Round|Shape=RoundedRectangle|*
%AMROUNDEDRECTD74*
21,1,0.00984,0.01870,0,0,0.0*
21,1,0.00492,0.02362,0,0,0.0*
1,1,0.00492,0.00246,-0.00935*
1,1,0.00492,-0.00246,-0.00935*
1,1,0.00492,-0.00246,0.00935*
1,1,0.00492,0.00246,0.00935*
%
%ADD74ROUNDEDRECTD74*%
G04:AMPARAMS|DCode=75|XSize=9.84mil|YSize=53.15mil|CornerRadius=2.46mil|HoleSize=0mil|Usage=FLASHONLY|Rotation=90.000|XOffset=0mil|YOffset=0mil|HoleType=Round|Shape=RoundedRectangle|*
%AMROUNDEDRECTD75*
21,1,0.00984,0.04823,0,0,90.0*
21,1,0.00492,0.05315,0,0,90.0*
1,1,0.00492,0.02411,0.00246*
1,1,0.00492,0.02411,-0.00246*
1,1,0.00492,-0.02411,-0.00246*
1,1,0.00492,-0.02411,0.00246*
%
%ADD75ROUNDEDRECTD75*%
G04:AMPARAMS|DCode=76|XSize=9.84mil|YSize=27.56mil|CornerRadius=2.46mil|HoleSize=0mil|Usage=FLASHONLY|Rotation=90.000|XOffset=0mil|YOffset=0mil|HoleType=Round|Shape=RoundedRectangle|*
%AMROUNDEDRECTD76*
21,1,0.00984,0.02264,0,0,90.0*
21,1,0.00492,0.02756,0,0,90.0*
1,1,0.00492,0.01132,0.00246*
1,1,0.00492,0.01132,-0.00246*
1,1,0.00492,-0.01132,-0.00246*
1,1,0.00492,-0.01132,0.00246*
%
%ADD76ROUNDEDRECTD76*%
G04:AMPARAMS|DCode=77|XSize=9.84mil|YSize=66.93mil|CornerRadius=2.46mil|HoleSize=0mil|Usage=FLASHONLY|Rotation=90.000|XOffset=0mil|YOffset=0mil|HoleType=Round|Shape=RoundedRectangle|*
%AMROUNDEDRECTD77*
21,1,0.00984,0.06201,0,0,90.0*
21,1,0.00492,0.06693,0,0,90.0*
1,1,0.00492,0.03100,0.00246*
1,1,0.00492,0.03100,-0.00246*
1,1,0.00492,-0.03100,-0.00246*
1,1,0.00492,-0.03100,0.00246*
%
%ADD77ROUNDEDRECTD77*%
%ADD78R,0.08504X0.07008*%
%ADD79R,0.04331X0.07480*%
%ADD80R,0.02756X0.01772*%
%ADD81R,0.06299X0.05906*%
%ADD82O,0.03543X0.00984*%
%ADD83O,0.00984X0.03543*%
%ADD84R,0.09449X0.09449*%
G04:AMPARAMS|DCode=85|XSize=59.06mil|YSize=59.06mil|CornerRadius=5.91mil|HoleSize=0mil|Usage=FLASHONLY|Rotation=0.000|XOffset=0mil|YOffset=0mil|HoleType=Round|Shape=RoundedRectangle|*
%AMROUNDEDRECTD85*
21,1,0.05906,0.04724,0,0,0.0*
21,1,0.04724,0.05906,0,0,0.0*
1,1,0.01181,0.02362,-0.02362*
1,1,0.01181,-0.02362,-0.02362*
1,1,0.01181,-0.02362,0.02362*
1,1,0.01181,0.02362,0.02362*
%
%ADD85ROUNDEDRECTD85*%
%ADD86R,0.05906X0.05906*%
%ADD87R,0.01181X0.02756*%
%ADD88R,0.01968X0.01968*%
%ADD89R,0.03543X0.03740*%
%ADD90R,0.05709X0.01181*%
%ADD91C,0.00039*%
%ADD92R,0.02362X0.04331*%
%ADD93R,0.05512X0.06693*%
%ADD94R,0.06693X0.05512*%
%ADD95R,0.02244X0.02520*%
G36*
X0690405Y0353878D02*
X0690404Y0353583D01*
X0690404Y0350139D01*
X0683712Y0350139D01*
X0682727Y0351123D01*
X0682727Y0353588D01*
X0682728Y0353880D01*
X0690405Y0353878D01*
D02*
G37*
D20*
X0748652Y0402737D02*
D03*
X0792196Y0402698D02*
D03*
Y0399548D02*
D03*
Y0396399D02*
D03*
Y0393249D02*
D03*
Y0390099D02*
D03*
Y0386950D02*
D03*
Y0383800D02*
D03*
Y0380651D02*
D03*
Y0377501D02*
D03*
Y0374352D02*
D03*
Y0371202D02*
D03*
Y0368052D02*
D03*
D21*
X0748633Y0399607D02*
D03*
Y0396418D02*
D03*
Y0390119D02*
D03*
Y0386969D02*
D03*
Y0383820D02*
D03*
Y0380670D02*
D03*
Y0377521D02*
D03*
Y0374371D02*
D03*
Y0371222D02*
D03*
Y0368072D02*
D03*
D22*
Y0393269D02*
D03*
D23*
X0753081Y0365395D02*
D03*
X0756231D02*
D03*
X0759420D02*
D03*
X0762570D02*
D03*
X0765680D02*
D03*
X0768830D02*
D03*
X0771979D02*
D03*
X0775129D02*
D03*
X0778278D02*
D03*
X0781428D02*
D03*
X0784617D02*
D03*
X0787924D02*
D03*
X0753081Y0405395D02*
D03*
X0756270Y0405434D02*
D03*
X0759420D02*
D03*
X0762570D02*
D03*
X0765719D02*
D03*
X0768830D02*
D03*
X0771979D02*
D03*
X0775129D02*
D03*
X0778278D02*
D03*
X0781428D02*
D03*
X0784578D02*
D03*
X0787767D02*
D03*
D24*
X0752753Y0502029D02*
D03*
X0767517D02*
D03*
X0777359D02*
D03*
X0782281D02*
D03*
X0792123D02*
D03*
X0772438D02*
D03*
X0762596D02*
D03*
X0757674D02*
D03*
X0747832D02*
D03*
X0787202D02*
D03*
D25*
X0737792Y0490611D02*
D03*
X0802162D02*
D03*
D26*
X0565548Y0596221D02*
D03*
X0577674D02*
D03*
X0565548Y0594647D02*
D03*
X0577674D02*
D03*
X0565548Y0593072D02*
D03*
X0577674D02*
D03*
X0565548Y0591497D02*
D03*
X0577674D02*
D03*
X0565548Y0589922D02*
D03*
X0577674D02*
D03*
X0565548Y0588347D02*
D03*
X0577674D02*
D03*
X0565548Y0586773D02*
D03*
X0577674D02*
D03*
X0565548Y0585198D02*
D03*
X0577674D02*
D03*
X0565548Y0583623D02*
D03*
X0577674D02*
D03*
X0565548Y0582048D02*
D03*
X0577674D02*
D03*
X0565548Y0580474D02*
D03*
X0577674D02*
D03*
X0565548Y0578899D02*
D03*
X0577674D02*
D03*
X0565548Y0577324D02*
D03*
X0577674D02*
D03*
X0565548Y0575749D02*
D03*
X0577674D02*
D03*
X0565548Y0574174D02*
D03*
X0577674D02*
D03*
X0565548Y0572600D02*
D03*
X0577674D02*
D03*
X0565548Y0571025D02*
D03*
X0577674D02*
D03*
X0565548Y0569450D02*
D03*
X0577674D02*
D03*
X0565548Y0567875D02*
D03*
X0577674D02*
D03*
X0565548Y0566300D02*
D03*
X0577674D02*
D03*
X0565548Y0564725D02*
D03*
X0577674D02*
D03*
X0565548Y0563151D02*
D03*
X0577674D02*
D03*
X0565548Y0561576D02*
D03*
X0577674D02*
D03*
X0565548Y0560001D02*
D03*
X0577674D02*
D03*
X0565548Y0558426D02*
D03*
X0577674D02*
D03*
X0565548Y0556851D02*
D03*
X0577674D02*
D03*
X0565548Y0555277D02*
D03*
X0577674D02*
D03*
X0565548Y0553702D02*
D03*
X0577674D02*
D03*
X0565548Y0552127D02*
D03*
X0577674D02*
D03*
X0565548Y0550552D02*
D03*
X0577674D02*
D03*
X0565548Y0548977D02*
D03*
X0577674D02*
D03*
X0565548Y0547403D02*
D03*
X0577674D02*
D03*
X0565548Y0545828D02*
D03*
X0577674D02*
D03*
X0565548Y0544253D02*
D03*
X0577674D02*
D03*
X0565548Y0542678D02*
D03*
X0577674D02*
D03*
X0565548Y0541103D02*
D03*
X0577674D02*
D03*
X0565548Y0539529D02*
D03*
X0577674D02*
D03*
X0565548Y0537954D02*
D03*
X0577674D02*
D03*
X0565548Y0536379D02*
D03*
X0577674D02*
D03*
X0565548Y0534804D02*
D03*
X0577674D02*
D03*
X0565548Y0533229D02*
D03*
X0577674D02*
D03*
X0565548Y0531655D02*
D03*
X0577674D02*
D03*
X0565548Y0530080D02*
D03*
X0577674D02*
D03*
X0565548Y0528505D02*
D03*
X0577674D02*
D03*
X0565548Y0526930D02*
D03*
X0577674D02*
D03*
X0565548Y0525355D02*
D03*
X0577674D02*
D03*
X0565548Y0523781D02*
D03*
X0577674D02*
D03*
X0565548Y0522206D02*
D03*
X0577674D02*
D03*
X0565548Y0520631D02*
D03*
X0577674D02*
D03*
X0565548Y0519056D02*
D03*
X0577674D02*
D03*
X0699092Y0596221D02*
D03*
X0711218D02*
D03*
X0699092Y0594647D02*
D03*
X0711218D02*
D03*
X0699092Y0593072D02*
D03*
X0711218D02*
D03*
X0699092Y0591497D02*
D03*
X0711218D02*
D03*
X0699092Y0589922D02*
D03*
X0711218D02*
D03*
X0699092Y0588347D02*
D03*
X0711218D02*
D03*
X0699092Y0586773D02*
D03*
X0711218D02*
D03*
X0699092Y0585198D02*
D03*
X0711218D02*
D03*
X0699092Y0583623D02*
D03*
X0711218D02*
D03*
X0699092Y0582048D02*
D03*
X0711218D02*
D03*
X0699092Y0580474D02*
D03*
X0711218D02*
D03*
X0699092Y0578899D02*
D03*
X0711218D02*
D03*
X0699092Y0577324D02*
D03*
X0711218D02*
D03*
X0699092Y0575749D02*
D03*
X0711218D02*
D03*
X0699092Y0574174D02*
D03*
X0711218D02*
D03*
X0699092Y0572600D02*
D03*
X0711218D02*
D03*
X0699092Y0571025D02*
D03*
X0711218D02*
D03*
X0699092Y0569450D02*
D03*
X0711218D02*
D03*
X0699092Y0567875D02*
D03*
X0711218D02*
D03*
X0699092Y0566300D02*
D03*
X0711218D02*
D03*
X0699092Y0564725D02*
D03*
X0711218D02*
D03*
X0699092Y0563151D02*
D03*
X0711218D02*
D03*
X0699092Y0561576D02*
D03*
X0711218D02*
D03*
X0699092Y0560001D02*
D03*
X0711218D02*
D03*
X0699092Y0558426D02*
D03*
X0711218D02*
D03*
X0699092Y0556851D02*
D03*
X0711218D02*
D03*
X0699092Y0555277D02*
D03*
X0711218D02*
D03*
X0699092Y0553702D02*
D03*
X0711218D02*
D03*
X0699092Y0552127D02*
D03*
X0711218D02*
D03*
X0699092Y0550552D02*
D03*
X0711218D02*
D03*
X0699092Y0548977D02*
D03*
X0711218D02*
D03*
X0699092Y0547403D02*
D03*
X0711218D02*
D03*
X0699092Y0545828D02*
D03*
X0711218D02*
D03*
X0699092Y0544253D02*
D03*
X0711218D02*
D03*
X0699092Y0542678D02*
D03*
X0711218D02*
D03*
X0699092Y0541103D02*
D03*
X0711218D02*
D03*
X0699092Y0539529D02*
D03*
X0711218D02*
D03*
X0699092Y0537954D02*
D03*
X0711218D02*
D03*
X0699092Y0536379D02*
D03*
X0711218D02*
D03*
X0699092Y0534804D02*
D03*
X0711218D02*
D03*
X0699092Y0533229D02*
D03*
X0711218D02*
D03*
X0699092Y0531655D02*
D03*
X0711218D02*
D03*
X0699092Y0530080D02*
D03*
X0711218D02*
D03*
X0699092Y0528505D02*
D03*
X0711218D02*
D03*
X0699092Y0526930D02*
D03*
X0711218D02*
D03*
X0699092Y0525355D02*
D03*
X0711218D02*
D03*
X0699092Y0523781D02*
D03*
X0711218D02*
D03*
X0699092Y0522206D02*
D03*
X0711218D02*
D03*
X0699092Y0520631D02*
D03*
X0711218D02*
D03*
X0699092Y0519056D02*
D03*
X0711218D02*
D03*
D27*
X0774210Y0625257D02*
D03*
X0780115D02*
D03*
X0780135Y0631283D02*
D03*
X0774229D02*
D03*
X0708560Y0507926D02*
D03*
X0714466D02*
D03*
X0708560Y0501922D02*
D03*
X0714466D02*
D03*
X0697537D02*
D03*
X0703442D02*
D03*
Y0507926D02*
D03*
X0697537D02*
D03*
X0717910Y0566989D02*
D03*
X0723816D02*
D03*
X0455404Y0515427D02*
D03*
X0449499D02*
D03*
X0455404Y0509423D02*
D03*
X0449499D02*
D03*
X0818600Y0488664D02*
D03*
X0812694D02*
D03*
X0818584Y0494689D02*
D03*
X0812679D02*
D03*
X0691252Y0554476D02*
D03*
X0685347D02*
D03*
X0691252Y0548472D02*
D03*
X0685347D02*
D03*
X0818698Y0515611D02*
D03*
X0812792D02*
D03*
X0718009Y0530966D02*
D03*
X0723914D02*
D03*
X0685332Y0524470D02*
D03*
X0691237D02*
D03*
X0718009Y0536970D02*
D03*
X0723914D02*
D03*
X0685332Y0530474D02*
D03*
X0691237D02*
D03*
X0685332Y0536478D02*
D03*
X0691237D02*
D03*
X0685332Y0542481D02*
D03*
X0691237D02*
D03*
X0718009Y0542974D02*
D03*
X0723914D02*
D03*
X0718009Y0548978D02*
D03*
X0723914D02*
D03*
X0723816Y0554981D02*
D03*
X0717910D02*
D03*
X0685332Y0560493D02*
D03*
X0691237D02*
D03*
X0723816Y0560985D02*
D03*
X0717910D02*
D03*
X0685332Y0566497D02*
D03*
X0691237D02*
D03*
X0685332Y0572501D02*
D03*
X0691237D02*
D03*
X0420076Y0499568D02*
D03*
X0414170D02*
D03*
X0414170Y0505572D02*
D03*
X0420076D02*
D03*
Y0517580D02*
D03*
X0414170D02*
D03*
X0361611Y0512363D02*
D03*
X0355706D02*
D03*
X0414170Y0511576D02*
D03*
X0420076D02*
D03*
X0361611Y0504784D02*
D03*
X0355706D02*
D03*
X0501238Y0512052D02*
D03*
X0507143D02*
D03*
X0385135Y0527718D02*
D03*
X0379229D02*
D03*
X0708560Y0489922D02*
D03*
X0714466D02*
D03*
X0697537D02*
D03*
X0703442D02*
D03*
X0708560Y0495926D02*
D03*
X0714466D02*
D03*
X0703442D02*
D03*
X0697537D02*
D03*
X0822044Y0536576D02*
D03*
X0816139D02*
D03*
X0822044Y0542580D02*
D03*
X0816139D02*
D03*
X0738186Y0565907D02*
D03*
X0732281D02*
D03*
X0738186Y0547796D02*
D03*
X0732281D02*
D03*
X0732281Y0559903D02*
D03*
X0738186D02*
D03*
X0822044Y0548584D02*
D03*
X0816139D02*
D03*
X0732281Y0553899D02*
D03*
X0738186D02*
D03*
X0685332Y0578505D02*
D03*
X0691237D02*
D03*
X0445666Y0358918D02*
D03*
X0439761D02*
D03*
X0501238Y0518056D02*
D03*
X0507143D02*
D03*
X0647550Y0351418D02*
D03*
X0641644D02*
D03*
X0647550Y0379371D02*
D03*
X0641644D02*
D03*
X0641644Y0386064D02*
D03*
X0647550D02*
D03*
X0641644Y0358111D02*
D03*
X0647550D02*
D03*
X0641644Y0371497D02*
D03*
X0647550D02*
D03*
X0581803Y0376615D02*
D03*
X0587709D02*
D03*
X0587707Y0383308D02*
D03*
X0581802D02*
D03*
X0651093Y0399450D02*
D03*
X0645188D02*
D03*
X0646881Y0406182D02*
D03*
X0652786D02*
D03*
X0518167Y0512052D02*
D03*
X0370371Y0596812D02*
D03*
X0518167Y0518056D02*
D03*
X0376375Y0566399D02*
D03*
X0462150Y0609589D02*
D03*
X0370487Y0572384D02*
D03*
X0376277Y0602816D02*
D03*
X0290820Y0237107D02*
D03*
X0439761Y0366300D02*
D03*
X0284914Y0237107D02*
D03*
X0512262Y0518056D02*
D03*
Y0512052D02*
D03*
X0376277Y0596812D02*
D03*
X0370371Y0602816D02*
D03*
X0376393Y0572384D02*
D03*
X0479087Y0595791D02*
D03*
X0473181D02*
D03*
X0468056Y0595770D02*
D03*
X0462150D02*
D03*
X0462150Y0601768D02*
D03*
X0468056D02*
D03*
Y0609589D02*
D03*
X0462150Y0615568D02*
D03*
X0468056D02*
D03*
X0445666Y0366300D02*
D03*
X0370470Y0566399D02*
D03*
D28*
X0774111Y0655622D02*
D03*
Y0639480D02*
D03*
X0780410D02*
D03*
Y0655622D02*
D03*
X0291056Y0244383D02*
D03*
Y0260525D02*
D03*
X0284756D02*
D03*
Y0244383D02*
D03*
X0813371Y0343650D02*
D03*
X0807071D02*
D03*
Y0327508D02*
D03*
X0813371D02*
D03*
D29*
X0820371Y0615316D02*
D03*
X0828442D02*
D03*
X0820371Y0607836D02*
D03*
X0828442D02*
D03*
D30*
X0824407Y0616143D02*
D03*
Y0607009D02*
D03*
D31*
X0818600Y0612560D02*
D03*
X0830214D02*
D03*
D32*
X0824407Y0606655D02*
D03*
D33*
X0844781Y0627875D02*
D03*
Y0631576D02*
D03*
X0857674Y0627875D02*
D03*
Y0631576D02*
D03*
X0858344Y0373722D02*
D03*
X0871237Y0373694D02*
D03*
Y0377395D02*
D03*
X0858344Y0377422D02*
D03*
D34*
X0867714Y0641005D02*
D03*
Y0631556D02*
D03*
Y0614233D02*
D03*
Y0601241D02*
D03*
X0901572Y0641005D02*
D03*
Y0601241D02*
D03*
Y0614233D02*
D03*
X0915745Y0394745D02*
D03*
Y0407737D02*
D03*
Y0367973D02*
D03*
X0881887Y0407737D02*
D03*
Y0394745D02*
D03*
Y0377422D02*
D03*
Y0367973D02*
D03*
D35*
X0372241Y0489430D02*
D03*
Y0409509D02*
D03*
D36*
X0362989Y0477029D02*
D03*
Y0473092D02*
D03*
Y0469155D02*
D03*
Y0465218D02*
D03*
Y0461281D02*
D03*
Y0457344D02*
D03*
Y0453407D02*
D03*
Y0449470D02*
D03*
Y0445533D02*
D03*
Y0441596D02*
D03*
Y0437659D02*
D03*
Y0433721D02*
D03*
Y0429784D02*
D03*
Y0425847D02*
D03*
Y0421910D02*
D03*
D37*
X0848816Y0377422D02*
D03*
D38*
X0842910Y0383229D02*
D03*
Y0371615D02*
D03*
D39*
X0847674Y0381458D02*
D03*
Y0373387D02*
D03*
X0840194Y0381458D02*
D03*
Y0373387D02*
D03*
D40*
X0848501Y0377422D02*
D03*
X0839367D02*
D03*
D41*
X0263481Y0314233D02*
D03*
X0260922D02*
D03*
X0255804D02*
D03*
X0258363D02*
D03*
X0266040D02*
D03*
D42*
X0256887Y0325454D02*
D03*
X0264958D02*
D03*
D43*
X0248324Y0315119D02*
D03*
X0273521D02*
D03*
D44*
X0384840Y0521910D02*
D03*
X0378934D02*
D03*
X0497257Y0642343D02*
D03*
X0491351D02*
D03*
X0455208Y0521234D02*
D03*
X0449302D02*
D03*
X0438088Y0496615D02*
D03*
X0432182D02*
D03*
X0438088Y0502127D02*
D03*
X0432182D02*
D03*
X0732478Y0541989D02*
D03*
X0738383D02*
D03*
X0732478Y0536478D02*
D03*
X0738383D02*
D03*
X0732478Y0530966D02*
D03*
X0738383D02*
D03*
X0491336Y0647813D02*
D03*
X0497241D02*
D03*
X0581999Y0390789D02*
D03*
X0588298D02*
D03*
X0735640Y0402225D02*
D03*
X0729735D02*
D03*
X0735719Y0407816D02*
D03*
X0729814D02*
D03*
X0647648Y0364903D02*
D03*
X0641743D02*
D03*
X0735719Y0396832D02*
D03*
X0729814D02*
D03*
X0434052Y0376438D02*
D03*
X0428147D02*
D03*
X0481100Y0351143D02*
D03*
X0487005D02*
D03*
D45*
X0471322Y0358131D02*
D03*
Y0360100D02*
D03*
Y0362068D02*
D03*
Y0364036D02*
D03*
Y0366005D02*
D03*
X0455444D02*
D03*
Y0364036D02*
D03*
Y0362068D02*
D03*
Y0360100D02*
D03*
Y0358131D02*
D03*
D46*
X0482377Y0360985D02*
D03*
Y0357048D02*
D03*
X0486712Y0359017D02*
D03*
D47*
X0811021Y0509137D02*
D03*
Y0501656D02*
D03*
X0820470D02*
D03*
Y0509137D02*
D03*
D48*
X0811021Y0505397D02*
D03*
D49*
X0435942Y0512992D02*
D03*
D50*
X0430036Y0509055D02*
D03*
Y0510630D02*
D03*
Y0512205D02*
D03*
Y0513780D02*
D03*
Y0515354D02*
D03*
Y0516929D02*
D03*
X0441848D02*
D03*
Y0515354D02*
D03*
Y0513780D02*
D03*
Y0512205D02*
D03*
Y0510630D02*
D03*
Y0509055D02*
D03*
D51*
X0432005Y0518898D02*
D03*
X0433580D02*
D03*
X0435155D02*
D03*
X0436729D02*
D03*
X0438304D02*
D03*
X0439879D02*
D03*
Y0507087D02*
D03*
X0438304D02*
D03*
X0436729D02*
D03*
X0435155D02*
D03*
X0433580D02*
D03*
X0432005D02*
D03*
D52*
X0391532Y0501025D02*
D03*
D53*
X0371060Y0516025D02*
D03*
Y0511025D02*
D03*
Y0506025D02*
D03*
Y0501025D02*
D03*
X0391532Y0516025D02*
D03*
Y0511025D02*
D03*
Y0506025D02*
D03*
D54*
X0799098Y0624139D02*
D03*
Y0626698D02*
D03*
Y0629257D02*
D03*
X0792792D02*
D03*
Y0624139D02*
D03*
D55*
X0769682Y0512757D02*
D03*
Y0516497D02*
D03*
Y0520237D02*
D03*
X0780312D02*
D03*
Y0516497D02*
D03*
Y0512757D02*
D03*
X0487083Y0606163D02*
D03*
X0476453Y0609903D02*
D03*
Y0606163D02*
D03*
Y0602422D02*
D03*
X0487083D02*
D03*
Y0609903D02*
D03*
D56*
X0399505Y0508525D02*
D03*
X0407143Y0512344D02*
D03*
Y0504706D02*
D03*
X0342340Y0508525D02*
D03*
X0349977Y0512344D02*
D03*
Y0504706D02*
D03*
X0422832Y0366399D02*
D03*
Y0358918D02*
D03*
X0433462Y0362659D02*
D03*
Y0358918D02*
D03*
Y0366399D02*
D03*
X0422832Y0362659D02*
D03*
D57*
X0470480Y0378481D02*
D03*
Y0372576D02*
D03*
X0476411Y0372577D02*
D03*
Y0378482D02*
D03*
X0464761Y0378505D02*
D03*
Y0372600D02*
D03*
X0458757Y0378505D02*
D03*
Y0372600D02*
D03*
X0791713Y0636245D02*
D03*
Y0642151D02*
D03*
X0801949Y0636245D02*
D03*
Y0642151D02*
D03*
X0503442Y0641694D02*
D03*
Y0647600D02*
D03*
X0337103Y0511576D02*
D03*
Y0505670D02*
D03*
X0503442Y0636576D02*
D03*
Y0630670D02*
D03*
X0761513Y0519351D02*
D03*
Y0513446D02*
D03*
X0755509Y0513446D02*
D03*
Y0519351D02*
D03*
X0788777Y0513249D02*
D03*
Y0519155D02*
D03*
X0794781Y0513249D02*
D03*
Y0519155D02*
D03*
X0482390Y0372577D02*
D03*
Y0378482D02*
D03*
X0240745Y0324765D02*
D03*
Y0318859D02*
D03*
X0452753Y0378505D02*
D03*
Y0372600D02*
D03*
X0418955Y0611576D02*
D03*
Y0617481D02*
D03*
X0412952Y0611576D02*
D03*
Y0617481D02*
D03*
X0376867Y0611576D02*
D03*
Y0617481D02*
D03*
X0394879Y0611576D02*
D03*
Y0617481D02*
D03*
X0388875Y0611576D02*
D03*
Y0617481D02*
D03*
X0370863Y0617481D02*
D03*
Y0611576D02*
D03*
X0382871D02*
D03*
Y0617481D02*
D03*
X0491336Y0630650D02*
D03*
Y0636555D02*
D03*
X0497320D02*
D03*
Y0630650D02*
D03*
X0580818Y0410277D02*
D03*
Y0404371D02*
D03*
X0596172Y0351615D02*
D03*
Y0357521D02*
D03*
X0602865Y0351615D02*
D03*
Y0357521D02*
D03*
X0699756Y0423072D02*
D03*
Y0417166D02*
D03*
X0757896Y0423033D02*
D03*
Y0417127D02*
D03*
X0763880Y0423033D02*
D03*
Y0417127D02*
D03*
X0773652Y0355080D02*
D03*
Y0349174D02*
D03*
X0769864Y0417127D02*
D03*
Y0423033D02*
D03*
X0779638Y0355080D02*
D03*
Y0349174D02*
D03*
X0609558Y0357521D02*
D03*
Y0351615D02*
D03*
X0616251D02*
D03*
Y0357521D02*
D03*
X0775855Y0417127D02*
D03*
Y0423033D02*
D03*
X0406948Y0611576D02*
D03*
Y0617481D02*
D03*
X0765548Y0307934D02*
D03*
X0400943Y0611576D02*
D03*
X0255847Y0276517D02*
D03*
X0400943Y0617481D02*
D03*
X0728344Y0601397D02*
D03*
X0364859Y0617481D02*
D03*
X0765548Y0302029D02*
D03*
X0255847Y0270611D02*
D03*
X0261831Y0276516D02*
D03*
Y0270611D02*
D03*
X0765548Y0293564D02*
D03*
Y0287659D02*
D03*
X0824899Y0302029D02*
D03*
Y0307934D02*
D03*
Y0293564D02*
D03*
Y0287659D02*
D03*
X0364859Y0611576D02*
D03*
X0728344Y0607303D02*
D03*
X0722340Y0607303D02*
D03*
Y0601397D02*
D03*
X0728344Y0596279D02*
D03*
Y0590374D02*
D03*
X0722340Y0596279D02*
D03*
Y0590374D02*
D03*
D58*
X0852635Y0641005D02*
D03*
X0848934D02*
D03*
X0866139Y0367973D02*
D03*
D59*
X0791713Y0649533D02*
D03*
Y0655832D02*
D03*
X0801949Y0649533D02*
D03*
Y0655832D02*
D03*
X0234938Y0324765D02*
D03*
Y0318859D02*
D03*
X0268600Y0286576D02*
D03*
Y0292481D02*
D03*
X0677570Y0356191D02*
D03*
Y0350286D02*
D03*
X0705780Y0422757D02*
D03*
Y0416458D02*
D03*
X0609853Y0391084D02*
D03*
Y0396989D02*
D03*
X0618121Y0387541D02*
D03*
Y0393446D02*
D03*
X0746159Y0423190D02*
D03*
Y0417284D02*
D03*
X0801835Y0390198D02*
D03*
Y0384292D02*
D03*
X0670837Y0382304D02*
D03*
Y0376399D02*
D03*
X0695176Y0346522D02*
D03*
Y0352428D02*
D03*
X0799965Y0327497D02*
D03*
Y0333402D02*
D03*
X0670837Y0364903D02*
D03*
Y0370808D02*
D03*
X0362497Y0581261D02*
D03*
Y0587166D02*
D03*
X0500051Y0602484D02*
D03*
Y0608389D02*
D03*
X0494524Y0608407D02*
D03*
Y0602501D02*
D03*
D60*
X0262891Y0295040D02*
D03*
X0255411D02*
D03*
X0259151Y0284411D02*
D03*
X0255411D02*
D03*
X0262891D02*
D03*
X0259151Y0295040D02*
D03*
D61*
X0403166Y0348859D02*
D03*
Y0358702D02*
D03*
Y0366576D02*
D03*
Y0376418D02*
D03*
D62*
X0392615Y0392659D02*
D03*
X0368600D02*
D03*
X0392615Y0332619D02*
D03*
X0368600D02*
D03*
D63*
X0849367Y0631556D02*
D03*
X0853147D02*
D03*
X0862950Y0377422D02*
D03*
X0866729D02*
D03*
D64*
X0498127Y0656891D02*
D03*
X0490450D02*
D03*
X0495568D02*
D03*
X0493009Y0664529D02*
D03*
X0490450D02*
D03*
X0493009Y0656891D02*
D03*
X0495568Y0664529D02*
D03*
X0498127D02*
D03*
D65*
X0804938Y0599470D02*
D03*
Y0594470D02*
D03*
Y0589470D02*
D03*
Y0567540D02*
D03*
Y0562540D02*
D03*
Y0557540D02*
D03*
Y0552540D02*
D03*
Y0547540D02*
D03*
Y0542540D02*
D03*
Y0537540D02*
D03*
Y0532540D02*
D03*
X0749820D02*
D03*
Y0537540D02*
D03*
Y0542540D02*
D03*
Y0547540D02*
D03*
Y0552540D02*
D03*
Y0557540D02*
D03*
X0749781Y0562540D02*
D03*
X0749820Y0567540D02*
D03*
Y0589470D02*
D03*
Y0594470D02*
D03*
Y0599470D02*
D03*
D66*
X0664204Y0351655D02*
D03*
X0656723D02*
D03*
X0664125Y0359686D02*
D03*
X0656644D02*
D03*
X0672589Y0389962D02*
D03*
X0680070D02*
D03*
X0672629Y0398033D02*
D03*
X0680109D02*
D03*
X0672707Y0406103D02*
D03*
X0680188D02*
D03*
D67*
X0602077Y0389410D02*
D03*
Y0396891D02*
D03*
X0624125Y0359096D02*
D03*
Y0351615D02*
D03*
X0633180Y0359096D02*
D03*
Y0351615D02*
D03*
D68*
X0626093Y0393151D02*
D03*
X0634755Y0389410D02*
D03*
Y0396891D02*
D03*
D69*
Y0421989D02*
D03*
Y0405257D02*
D03*
D70*
X0651015Y0417954D02*
D03*
X0666762D02*
D03*
D71*
X0719855Y0372245D02*
D03*
X0722414D02*
D03*
X0717296Y0389962D02*
D03*
X0719855D02*
D03*
X0722414D02*
D03*
X0714737D02*
D03*
Y0372245D02*
D03*
X0717296D02*
D03*
D72*
X0629243Y0367560D02*
D03*
Y0380946D02*
D03*
X0683141Y0367324D02*
D03*
Y0380710D02*
D03*
D73*
X0656320Y0376143D02*
D03*
Y0374174D02*
D03*
Y0372206D02*
D03*
Y0370237D02*
D03*
D74*
X0657894Y0366891D02*
D03*
X0659863D02*
D03*
X0661831D02*
D03*
X0663800D02*
D03*
Y0379489D02*
D03*
X0661831D02*
D03*
X0659863D02*
D03*
X0657894D02*
D03*
D75*
X0663898Y0371222D02*
D03*
Y0375159D02*
D03*
D76*
X0662816Y0378800D02*
D03*
Y0367580D02*
D03*
D77*
X0663209Y0373190D02*
D03*
D78*
X0661605Y0405159D02*
D03*
Y0389410D02*
D03*
D79*
X0723063Y0398387D02*
D03*
X0713221D02*
D03*
D80*
X0651093Y0392757D02*
D03*
X0641251D02*
D03*
D81*
X0624223Y0410080D02*
D03*
X0607491D02*
D03*
D82*
X0599223Y0378387D02*
D03*
Y0374450D02*
D03*
Y0372481D02*
D03*
X0614381Y0368544D02*
D03*
Y0370513D02*
D03*
Y0372481D02*
D03*
Y0374450D02*
D03*
Y0378387D02*
D03*
Y0376418D02*
D03*
X0599223D02*
D03*
Y0368544D02*
D03*
Y0370513D02*
D03*
D83*
X0601881Y0365887D02*
D03*
X0607786D02*
D03*
X0609755D02*
D03*
X0611723D02*
D03*
Y0381044D02*
D03*
X0609755D02*
D03*
X0607786D02*
D03*
X0605818D02*
D03*
X0603849D02*
D03*
X0601881D02*
D03*
X0605818Y0365887D02*
D03*
X0603849D02*
D03*
D84*
X0606802Y0373466D02*
D03*
D85*
X0760589Y0395237D02*
D03*
D86*
X0770432Y0395237D02*
D03*
X0780274Y0395237D02*
D03*
X0760589Y0385395D02*
D03*
X0770432D02*
D03*
X0780274D02*
D03*
X0760491Y0375552D02*
D03*
X0770432D02*
D03*
X0780274D02*
D03*
D87*
X0685581Y0347875D02*
D03*
X0687550D02*
D03*
X0689518D02*
D03*
Y0356143D02*
D03*
X0687550D02*
D03*
X0685581D02*
D03*
X0683613D02*
D03*
Y0347875D02*
D03*
D88*
X0686566Y0352009D02*
D03*
D89*
X0600700Y0410080D02*
D03*
X0586920D02*
D03*
D90*
X0411513Y0585788D02*
D03*
Y0583820D02*
D03*
Y0581851D02*
D03*
Y0579883D02*
D03*
Y0577914D02*
D03*
X0394190D02*
D03*
Y0579883D02*
D03*
Y0581851D02*
D03*
Y0583820D02*
D03*
Y0585788D02*
D03*
D91*
X0707635Y0303485D02*
D03*
X0712635D02*
D03*
X0707635Y0298485D02*
D03*
X0712635D02*
D03*
X0707635Y0293485D02*
D03*
X0712635D02*
D03*
D92*
X0369844Y0579212D02*
D03*
X0373584D02*
D03*
X0377324D02*
D03*
Y0589842D02*
D03*
X0373584D02*
D03*
X0369844D02*
D03*
D93*
X0520371Y0584312D02*
D03*
X0497930D02*
D03*
X0490450D02*
D03*
Y0532344D02*
D03*
X0520371D02*
D03*
X0512891D02*
D03*
X0505410D02*
D03*
X0497930D02*
D03*
X0505410Y0584312D02*
D03*
X0512891D02*
D03*
D94*
X0479426Y0573288D02*
D03*
Y0543367D02*
D03*
X0531395D02*
D03*
Y0573288D02*
D03*
Y0565808D02*
D03*
Y0558328D02*
D03*
Y0550847D02*
D03*
X0479426D02*
D03*
Y0558328D02*
D03*
Y0565808D02*
D03*
D95*
X0869840Y0367973D02*
D03*
M02*
