G04*
G04 #@! TF.GenerationSoftware,Altium Limited,Altium Designer,22.8.2 (66)*
G04*
G04 Layer_Color=16711935*
%FSAX25Y25*%
%MOIN*%
G70*
G04*
G04 #@! TF.SameCoordinates,6D899778-4568-4F72-86F0-953F423F45E2*
G04*
G04*
G04 #@! TF.FilePolarity,Negative*
G04*
G01*
G75*
%ADD158R,0.06706X0.06706*%
%ADD168C,0.24422*%
%ADD169C,0.06706*%
%ADD170C,0.09068*%
%ADD171R,0.09068X0.09068*%
%ADD172R,0.00800X0.00800*%
%ADD173O,0.04737X0.07099*%
%ADD174R,0.06706X0.06706*%
%ADD175C,0.14580*%
%ADD176O,0.12611X0.06706*%
%ADD177O,0.06706X0.12611*%
%ADD178P,0.08537X8X292.5*%
%ADD179C,0.21666*%
%ADD180C,0.06800*%
%ADD181O,0.03950X0.07099*%
%ADD182C,0.04343*%
%ADD236R,0.26391X0.20485*%
%ADD237R,0.13792X0.20485*%
D158*
X0745863Y0630375D02*
D03*
X0654046Y0431733D02*
D03*
X0674992D02*
D03*
X0642235D02*
D03*
D168*
X0573422Y0453308D02*
D03*
X0703344D02*
D03*
X0573422Y0642284D02*
D03*
X0703344D02*
D03*
D169*
X0725863Y0630375D02*
D03*
X0735863D02*
D03*
X0389859Y0372265D02*
D03*
Y0353013D02*
D03*
X0477801Y0469147D02*
D03*
Y0459147D02*
D03*
Y0449147D02*
D03*
X0664046Y0431733D02*
D03*
X0764992D02*
D03*
X0754992D02*
D03*
X0744992D02*
D03*
X0734992D02*
D03*
X0714992D02*
D03*
X0704992D02*
D03*
X0694992D02*
D03*
X0684992D02*
D03*
X0774992D02*
D03*
X0724992D02*
D03*
X0632235D02*
D03*
X0570188Y0364922D02*
D03*
Y0374922D02*
D03*
Y0384922D02*
D03*
X0282182Y0575454D02*
D03*
X0813840Y0306627D02*
D03*
X0788249Y0288911D02*
D03*
X0813840D02*
D03*
X0788249Y0306627D02*
D03*
X0755277D02*
D03*
X0729686Y0288911D02*
D03*
X0755277D02*
D03*
X0729686Y0306627D02*
D03*
X0292025Y0575454D02*
D03*
D170*
X0321356Y0407835D02*
D03*
Y0421615D02*
D03*
Y0435394D02*
D03*
Y0494449D02*
D03*
Y0508229D02*
D03*
Y0522008D02*
D03*
D171*
Y0449174D02*
D03*
Y0535788D02*
D03*
D172*
X0252962Y0316200D02*
D03*
X0268907D02*
D03*
D173*
X0249603Y0324664D02*
D03*
X0272241D02*
D03*
D174*
X0477801Y0439147D02*
D03*
X0570188Y0394922D02*
D03*
D175*
X0350916Y0613274D02*
D03*
Y0327274D02*
D03*
X0433690Y0327289D02*
D03*
Y0613288D02*
D03*
X0599412Y0613505D02*
D03*
Y0327505D02*
D03*
X0516269Y0327471D02*
D03*
Y0613471D02*
D03*
X0764938Y0613418D02*
D03*
Y0327418D02*
D03*
X0682312Y0327485D02*
D03*
Y0613485D02*
D03*
D176*
X0250686Y0608721D02*
D03*
Y0589430D02*
D03*
D177*
X0261710Y0598485D02*
D03*
D178*
X0719440Y0364371D02*
D03*
Y0406891D02*
D03*
D179*
X0348270Y0535913D02*
D03*
X0433388D02*
D03*
X0491458Y0495613D02*
D03*
Y0412936D02*
D03*
X0540671D02*
D03*
D180*
X0365829Y0630795D02*
D03*
X0415829D02*
D03*
X0405829D02*
D03*
X0395829D02*
D03*
X0385829D02*
D03*
X0375829D02*
D03*
D181*
X0263492Y0253245D02*
D03*
X0891257Y0253348D02*
D03*
X0827221Y0427997D02*
D03*
Y0580359D02*
D03*
X0518444Y0290005D02*
D03*
X0518366Y0305793D02*
D03*
X0400374Y0298195D02*
D03*
D182*
X0714135Y0308485D02*
D03*
X0706135D02*
D03*
X0710135Y0288485D02*
D03*
D236*
X0438132Y0648846D02*
D03*
X0348762D02*
D03*
X0273027Y0299922D02*
D03*
X0362397D02*
D03*
X0581005Y0299318D02*
D03*
X0670375D02*
D03*
D237*
X0381439Y0648846D02*
D03*
X0405454D02*
D03*
X0637698Y0299318D02*
D03*
X0329720Y0299922D02*
D03*
X0305704D02*
D03*
X0613683Y0299318D02*
D03*
M02*
